<?xml version="1.0" encoding="UTF-8" standalone="no"?>
<!-- Created with Inkscape (http://www.inkscape.org/) -->

<svg
   xmlns:dc="http://purl.org/dc/elements/1.1/"
   xmlns:cc="http://creativecommons.org/ns#"
   xmlns:rdf="http://www.w3.org/1999/02/22-rdf-syntax-ns#"
   xmlns:svg="http://www.w3.org/2000/svg"
   xmlns="http://www.w3.org/2000/svg"
   xmlns:sodipodi="http://sodipodi.sourceforge.net/DTD/sodipodi-0.dtd"
   xmlns:inkscape="http://www.inkscape.org/namespaces/inkscape"
   width="744.09448819"
   height="1052.3622047"
   id="svg3056"
   version="1.1"
   inkscape:version="0.48.4 r9939"
   sodipodi:docname="burning_ships.svg">
  <defs
     id="defs3058">
    <inkscape:path-effect
       effect="skeletal"
       id="path-effect3169"
       is_visible="true"
       pattern="m 0.25,6.6785023 0,3.18407 0,0.0413 c 0.0286,1.7982597 1.95291,3.2667697 4.30056,3.2667697 2.05282,0 3.79672,-1.12066 4.21786,-2.60514 0.0864,0.009 0.15839,0.0413 0.24811,0.0413 1.07663,0 1.94352,-0.6904697 1.94352,-1.5713497 0,-0.88089 -0.86689,-1.61271 -1.94352,-1.61271 -0.0756,0 -0.13356,0.0344 -0.20676,0.0413 l 0,-0.78568 -8.55977,0 z m 8.76653,1.53001 c 0.62751,0 1.11649,0.36221 1.11649,0.82703 0,0.46482 -0.48898,0.82703 -1.11649,0.82703 -0.0716,0 -0.13839,-0.0323 -0.20676,-0.0413 l 0,-1.57136 c 0.0684,-0.009 0.13522,-0.0413 0.20676,-0.0413 z"
       copytype="single_stretched"
       prop_scale="1"
       scale_y_rel="false"
       spacing="0"
       normal_offset="0"
       tang_offset="0"
       prop_units="false"
       vertical_pattern="false"
       fuse_tolerance="0" />
    <clipPath
       clipPathUnits="userSpaceOnUse"
       id="clipPath3808">
      <rect
         style="fill:#ff0000;fill-opacity:1;stroke:none"
         id="rect3810"
         width="256.57864"
         height="393.73474"
         x="1139.4521"
         y="635.65894" />
    </clipPath>
    <clipPath
       clipPathUnits="userSpaceOnUse"
       id="clipPath3124">
      <rect
         style="fill:#ff0000;fill-opacity:1;stroke:none"
         id="rect3126"
         width="256.57864"
         height="393.73474"
         x="1139.4521"
         y="635.65894" />
    </clipPath>
    <clipPath
       clipPathUnits="userSpaceOnUse"
       id="clipPath3128">
      <rect
         style="fill:#ff0000;fill-opacity:1;stroke:none"
         id="rect3130"
         width="256.57864"
         height="393.73474"
         x="1139.4521"
         y="635.65894" />
    </clipPath>
    <clipPath
       clipPathUnits="userSpaceOnUse"
       id="clipPath3132">
      <rect
         style="fill:#ff0000;fill-opacity:1;stroke:none"
         id="rect3134"
         width="256.57864"
         height="393.73474"
         x="1139.4521"
         y="635.65894" />
    </clipPath>
    <clipPath
       clipPathUnits="userSpaceOnUse"
       id="clipPath3136">
      <rect
         style="fill:#ff0000;fill-opacity:1;stroke:none"
         id="rect3138"
         width="256.57864"
         height="393.73474"
         x="1139.4521"
         y="635.65894" />
    </clipPath>
    <clipPath
       clipPathUnits="userSpaceOnUse"
       id="clipPath3140">
      <rect
         style="fill:#ff0000;fill-opacity:1;stroke:none"
         id="rect3142"
         width="256.57864"
         height="393.73474"
         x="1139.4521"
         y="635.65894" />
    </clipPath>
  </defs>
  <sodipodi:namedview
     id="base"
     pagecolor="#ffffff"
     bordercolor="#666666"
     borderopacity="1.0"
     inkscape:pageopacity="0.0"
     inkscape:pageshadow="2"
     inkscape:zoom="0.42045298"
     inkscape:cx="736.57171"
     inkscape:cy="473.82441"
     inkscape:document-units="px"
     inkscape:current-layer="layer1"
     showgrid="false"
     inkscape:object-nodes="true"
     inkscape:window-width="1301"
     inkscape:window-height="744"
     inkscape:window-x="65"
     inkscape:window-y="24"
     inkscape:window-maximized="1"
     showguides="true"
     inkscape:guide-bbox="true"
     inkscape:snap-smooth-nodes="false" />
  <metadata
     id="metadata3061">
    <rdf:RDF>
      <cc:Work
         rdf:about="">
        <dc:format>image/svg+xml</dc:format>
        <dc:type
           rdf:resource="http://purl.org/dc/dcmitype/StillImage" />
        <dc:title></dc:title>
      </cc:Work>
    </rdf:RDF>
  </metadata>
  <g
     inkscape:label="Layer 1"
     inkscape:groupmode="layer"
     id="layer1">
    <rect
       inkscape:export-ydpi="299.99429"
       inkscape:export-xdpi="299.99429"
       inkscape:export-filename="/home/krother/Desktop/mySpeakerBusiness/pictures/burning_ships.png"
       y="333.1972"
       x="71.254875"
       height="322.62766"
       width="636.04053"
       id="rect3257"
       style="fill:#ffffff;fill-opacity:1;stroke:none" />
    <g
       inkscape:export-ydpi="299.99429"
       inkscape:export-xdpi="299.99429"
       inkscape:export-filename="/home/krother/Desktop/mySpeakerBusiness/pictures/burning_ships.png"
       transform="matrix(0.42360244,0,0,0.17727602,380.7272,437.87588)"
       id="g3417">
      <path
         style="fill:#44667d;fill-opacity:1;stroke:#44667d;stroke-width:7.67501211;stroke-opacity:1"
         d="m 1011.1627,753.35704 c 53.4034,0 74.886,95.96449 128.2894,95.96449 53.4034,0 74.886,-95.9645 128.2894,-95.96449 53.4034,10e-6 74.8859,95.96448 128.2893,95.96449 53.4034,10e-6 74.886,-95.96449 128.2894,-95.96449 53.4034,0 128.2894,95.96449 128.2894,95.96449 l -2.0203,160.61427 -767.71595,0 c 0,0 -23.943,-112.80365 0,-160.61427 23.943,-47.81062 74.88591,-95.96449 128.28935,-95.96449 z"
         id="path3419"
         inkscape:connector-curvature="0"
         sodipodi:nodetypes="zzzzzccczz"
         clip-path="url(#clipPath3808)"
         transform="matrix(0.52117181,0,0,0.52117181,-350.95581,134.66493)" />
      <path
         transform="matrix(0.52117181,0,0,0.52117181,-482.67745,134.66493)"
         clip-path="url(#clipPath3808)"
         sodipodi:nodetypes="zzzzzccczz"
         inkscape:connector-curvature="0"
         id="path3421"
         d="m 1011.1627,753.35704 c 53.4034,0 74.886,95.96449 128.2894,95.96449 53.4034,0 74.886,-95.9645 128.2894,-95.96449 53.4034,10e-6 74.8859,95.96448 128.2893,95.96449 53.4034,10e-6 74.886,-95.96449 128.2894,-95.96449 53.4034,0 128.2894,95.96449 128.2894,95.96449 l -2.0203,160.61427 -767.71595,0 c 0,0 -23.943,-112.80365 0,-160.61427 23.943,-47.81062 74.88591,-95.96449 128.28935,-95.96449 z"
         style="fill:#44667d;fill-opacity:1;stroke:#44667d;stroke-width:7.67501211;stroke-opacity:1" />
      <path
         style="fill:#44667d;fill-opacity:1;stroke:#44667d;stroke-width:7.67501211;stroke-opacity:1"
         d="m 1011.1627,753.35704 c 53.4034,0 74.886,95.96449 128.2894,95.96449 53.4034,0 74.886,-95.9645 128.2894,-95.96449 53.4034,10e-6 74.8859,95.96448 128.2893,95.96449 53.4034,10e-6 74.886,-95.96449 128.2894,-95.96449 53.4034,0 128.2894,95.96449 128.2894,95.96449 l -2.0203,160.61427 -767.71595,0 c 0,0 -23.943,-112.80365 0,-160.61427 23.943,-47.81062 74.88591,-95.96449 128.28935,-95.96449 z"
         id="path3423"
         inkscape:connector-curvature="0"
         sodipodi:nodetypes="zzzzzccczz"
         clip-path="url(#clipPath3808)"
         transform="matrix(0.52117181,0,0,0.52117181,-614.39899,134.66493)" />
      <path
         transform="matrix(0.52117181,0,0,0.52117181,44.209053,134.66493)"
         clip-path="url(#clipPath3808)"
         sodipodi:nodetypes="zzzzzccczz"
         inkscape:connector-curvature="0"
         id="path3425"
         d="m 1011.1627,753.35704 c 53.4034,0 74.886,95.96449 128.2894,95.96449 53.4034,0 74.886,-95.9645 128.2894,-95.96449 53.4034,10e-6 74.8859,95.96448 128.2893,95.96449 53.4034,10e-6 74.886,-95.96449 128.2894,-95.96449 53.4034,0 128.2894,95.96449 128.2894,95.96449 l -2.0203,160.61427 -767.71595,0 c 0,0 -23.943,-112.80365 0,-160.61427 23.943,-47.81062 74.88591,-95.96449 128.28935,-95.96449 z"
         style="fill:#44667d;fill-opacity:1;stroke:#44667d;stroke-width:7.67501211;stroke-opacity:1" />
      <path
         style="fill:#44667d;fill-opacity:1;stroke:#44667d;stroke-width:7.67501211;stroke-opacity:1"
         d="m 1011.1627,753.35704 c 53.4034,0 74.886,95.96449 128.2894,95.96449 53.4034,0 74.886,-95.9645 128.2894,-95.96449 53.4034,10e-6 74.8859,95.96448 128.2893,95.96449 53.4034,10e-6 74.886,-95.96449 128.2894,-95.96449 53.4034,0 128.2894,95.96449 128.2894,95.96449 l -2.0203,160.61427 -767.71595,0 c 0,0 -23.943,-112.80365 0,-160.61427 23.943,-47.81062 74.88591,-95.96449 128.28935,-95.96449 z"
         id="path3427"
         inkscape:connector-curvature="0"
         sodipodi:nodetypes="zzzzzccczz"
         clip-path="url(#clipPath3808)"
         transform="matrix(0.52117181,0,0,0.52117181,-87.512587,134.66493)" />
      <path
         transform="matrix(0.52117181,0,0,0.52117181,-219.23423,134.66493)"
         clip-path="url(#clipPath3808)"
         sodipodi:nodetypes="zzzzzccczz"
         inkscape:connector-curvature="0"
         id="path3429"
         d="m 1011.1627,753.35704 c 53.4034,0 74.886,95.96449 128.2894,95.96449 53.4034,0 74.886,-95.9645 128.2894,-95.96449 53.4034,10e-6 74.8859,95.96448 128.2893,95.96449 53.4034,10e-6 74.886,-95.96449 128.2894,-95.96449 53.4034,0 128.2894,95.96449 128.2894,95.96449 l -2.0203,160.61427 -767.71595,0 c 0,0 -23.943,-112.80365 0,-160.61427 23.943,-47.81062 74.88591,-95.96449 128.28935,-95.96449 z"
         style="fill:#44667d;fill-opacity:1;stroke:#44667d;stroke-width:7.67501211;stroke-opacity:1" />
    </g>
    <g
       id="g3930"
       transform="matrix(0.15590611,-0.22329124,0.22329124,0.15590611,384.23016,774.00013)"
       inkscape:export-filename="/home/krother/Desktop/mySpeakerBusiness/pictures/burning_ships.png"
       inkscape:export-xdpi="299.99429"
       inkscape:export-ydpi="299.99429">
      <path
         sodipodi:nodetypes="ccccc"
         inkscape:connector-curvature="0"
         id="rect3157"
         d="m 1276.6687,69.767739 -25.0987,102.936021 -39.2137,-9.5614 22.8602,-93.755317 z"
         style="fill:#80b940;fill-opacity:1;stroke:#000000;stroke-width:3;stroke-linecap:round;stroke-miterlimit:4;stroke-opacity:1;stroke-dashoffset:0" />
      <path
         style="fill:#80b940;fill-opacity:1;stroke:#000000;stroke-width:3;stroke-linecap:round;stroke-miterlimit:4;stroke-opacity:1;stroke-dashoffset:0"
         d="m 1191.6414,69.767739 -25.0987,102.936021 -39.2137,-9.5614 22.8602,-93.755313 z"
         id="path3160"
         inkscape:connector-curvature="0"
         sodipodi:nodetypes="ccccc" />
      <rect
         y="149.24968"
         x="1047.7451"
         height="80.725143"
         width="289.26508"
         id="rect3154"
         style="fill:#80b940;fill-opacity:1;stroke:#000000;stroke-width:3;stroke-linecap:round;stroke-miterlimit:4;stroke-opacity:1;stroke-dasharray:none;stroke-dashoffset:0" />
      <path
         sodipodi:nodetypes="ccccc"
         inkscape:connector-curvature="0"
         id="rect3152"
         d="m 832.47802,221.56595 593.66608,0 c 0.5494,75.62214 -88.8671,127.28697 -161.4502,124.45126 l -292.62866,0 C 904.86248,348.326 832.47802,221.56595 832.47802,221.56595 z"
         style="fill:#80b940;fill-opacity:1;stroke:#000000;stroke-width:3" />
    </g>
    <rect
       inkscape:export-ydpi="299.99429"
       inkscape:export-xdpi="299.99429"
       inkscape:export-filename="/home/krother/Desktop/mySpeakerBusiness/pictures/burning_ships.png"
       y="555.05798"
       x="371.17551"
       height="102.36202"
       width="335.85519"
       id="rect3393"
       style="fill:#44667d;fill-opacity:1;stroke:none;stroke-width:0.41195293999999999;stroke-linecap:butt;stroke-linejoin:round;stroke-miterlimit:4;stroke-dasharray:none;stroke-dashoffset:0" />
    <rect
       inkscape:export-ydpi="299.99429"
       inkscape:export-xdpi="299.99429"
       inkscape:export-filename="/home/krother/Desktop/mySpeakerBusiness/pictures/burning_ships.png"
       y="521.50775"
       x="73.088348"
       height="134.60576"
       width="422.29431"
       id="rect3259"
       style="fill:#cccccc;stroke:#000000;stroke-width:1.97006023" />
    <rect
       style="fill:none;stroke:#000000;stroke-width:3.41479325"
       id="rect3013"
       width="636.04053"
       height="324.48755"
       x="71.254875"
       y="333.1972"
       inkscape:export-filename="/home/krother/Desktop/mySpeakerBusiness/pictures/burning_ships.png"
       inkscape:export-xdpi="299.99429"
       inkscape:export-ydpi="299.99429" />
    <flowRoot
       xml:space="preserve"
       id="flowRoot3323"
       style="fill:black;stroke:none;stroke-opacity:1;stroke-width:1px;stroke-linejoin:miter;stroke-linecap:butt;fill-opacity:1;font-family:Sans;font-style:normal;font-weight:normal;font-size:16px;line-height:125%;letter-spacing:0px;word-spacing:0px"><flowRegion
         id="flowRegion3325"><rect
           id="rect3327"
           width="57.578693"
           height="61.619305"
           x="362.64478"
           y="350.81125"
           style="font-size:16px" /></flowRegion><flowPara
         id="flowPara3329" /></flowRoot>    <flowRoot
       xml:space="preserve"
       id="flowRoot3798"
       style="font-size:32px;font-style:normal;font-weight:normal;line-height:125%;letter-spacing:0px;word-spacing:0px;fill:#000000;fill-opacity:1;stroke:none;font-family:Sans"
       transform="translate(6.7857143,-1.4285714)"
       inkscape:export-filename="C:\Documents and Settings\Kristian\Pulpit\talk_python.png"
       inkscape:export-xdpi="300"
       inkscape:export-ydpi="300"><flowRegion
         id="flowRegion3800"><rect
           id="rect3802"
           width="32.142857"
           height="31.785715"
           x="471.07144"
           y="348.79074"
           style="font-size:32px" /></flowRegion><flowPara
         id="flowPara3804"
         style="font-size:32px;font-weight:bold">?</flowPara></flowRoot>    <g
       id="g3138"
       transform="matrix(0.76634833,0,0,0.76634833,163.86062,155.03539)"
       inkscape:export-filename="/home/krother/Desktop/mySpeakerBusiness/pictures/burning_ships.png"
       inkscape:export-xdpi="299.99429"
       inkscape:export-ydpi="299.99429">
      <g
         id="g3265"
         transform="matrix(2.2298119,0,0,2.2298119,-1635.8979,-223.80345)"
         inkscape:export-filename="C:\Documents and Settings\Kristian\Pulpit\pull.png"
         inkscape:export-xdpi="300.03"
         inkscape:export-ydpi="300.03"
         style="stroke:#000000;stroke-width:0.89693666">
        <path
           sodipodi:nodetypes="cccccccccccccc"
           style="fill:#80b940;fill-opacity:1;stroke:#000000;stroke-width:0.89693666"
           d="m 878.66979,329.04307 -22.68101,-29.47521 -11.7629,0 -34.62832,18.53229 9.63158,9.61156 18.79804,-8.86212 -11.4493,39.64937 16.49576,0 5.65901,-22.16206 5.18502,21.68804 14.61427,0 -8.38706,-34.48817 16.46981,18.57387 z"
           id="path3267"
           inkscape:connector-curvature="0"
           inkscape:export-filename="C:\Documents and Settings\Kristian\Pulpit\title.png"
           inkscape:export-xdpi="300.03"
           inkscape:export-ydpi="300.03" />
        <g
           id="g4339"
           transform="matrix(-0.88941988,0,0,0.88941988,1593.3447,-28.680443)"
           inkscape:export-filename="/home/krother/Desktop/mySpeakerBusiness/speaker_types.png"
           inkscape:export-xdpi="149.98193"
           inkscape:export-ydpi="149.98193"
           style="stroke:#000000;stroke-width:1.00845134">
          <path
             inkscape:export-ydpi="300.03"
             inkscape:export-xdpi="300.03"
             inkscape:export-filename="C:\Documents and Settings\Kristian\Pulpit\title.png"
             inkscape:connector-curvature="0"
             id="path4343"
             d="m 846.27282,348.56679 c 1.84203,3.19048 2.20788,4.77217 1.68881,7.74144 -0.0583,0.3337 3.744,2.05202 3.26666,3.60075 -0.72372,2.34805 -4.78608,1.23705 -4.95028,1.56086 -1.07145,2.11271 -2.43085,3.1028 -4.63491,4.3753 -16.54587,7.39903 -23.9746,-14.89264 -12.6445,-21.90093 6.04872,-3.49224 13.78199,-1.42615 17.27422,4.62258 z"
             style="fill:#80b940;fill-opacity:1;stroke:#000000;stroke-width:1.13874865"
             sodipodi:nodetypes="ssssccs" />
        </g>
      </g>
      <g
         transform="matrix(0.83608224,-0.54860413,0.54860413,0.83608224,-182.40178,297.00753)"
         id="g3072">
        <path
           style="fill:#000000;fill-opacity:1;stroke:#000000;stroke-width:0.78194761;stroke-linecap:round;stroke-miterlimit:4;stroke-opacity:1;stroke-dasharray:none;stroke-dashoffset:0"
           d="m 200.27805,324.39267 c -9.67029,0 -17.50191,4.32099 -17.50191,9.65986 0,3.91111 1.18563,7.28066 7.23543,8.8083 l 3.01889,40.95463 c 0,0 2.05536,8.97901 7.85343,8.59541 5.79807,-0.38359 7.85342,-8.59541 7.85342,-8.59541 l 1.81134,-41.27396 c 5.40118,-1.65269 7.25376,-4.84367 7.25376,-8.48897 0,-5.33887 -7.85406,-9.65986 -17.52436,-9.65986 z"
           id="path3050"
           inkscape:connector-curvature="0"
           sodipodi:nodetypes="sscczccss" />
        <g
           transform="matrix(0.99597495,-0.08963199,0.08963199,0.99597495,-29.023069,19.740745)"
           id="g3067">
          <path
             sodipodi:nodetypes="cccc"
             inkscape:connector-curvature="0"
             id="path3061"
             d="m 185.36742,333.35833 c 5.41179,-6.22295 10.88059,-16.14748 14.78598,-33.25707 3.94885,17.07275 8.56246,24.7963 15.10755,33.25707 -10.93714,2.9179 -20.62862,2.09879 -29.89353,0 z"
             style="fill:#ffff00;stroke:none" />
          <path
             style="fill:#ff6600;stroke:none"
             d="m 188.48223,333.35833 c 4.28401,-4.92613 8.61315,-12.78245 11.70468,-26.32651 3.12593,13.5149 6.7781,19.62891 11.95923,26.32651 -8.93473,3.1669 -16.38095,1.78226 -23.66391,0 z"
             id="path3063"
             inkscape:connector-curvature="0"
             sodipodi:nodetypes="cccc" />
          <path
             sodipodi:nodetypes="cccc"
             inkscape:connector-curvature="0"
             id="path3065"
             d="m 191.978,333.35833 c 3.0183,-3.47069 6.06839,-9.00586 8.24652,-18.54831 2.20237,9.52191 4.7755,13.82953 8.42586,18.54831 -5.82348,2.17898 -11.40872,2.57608 -16.67238,0 z"
             style="fill:#ff0000;stroke:none" />
        </g>
      </g>
      <path
         inkscape:export-ydpi="300"
         inkscape:export-xdpi="300"
         inkscape:export-filename="C:\Documents and Settings\Kristian\Pulpit\coffee.png"
         style="fill:none;stroke:#000000;stroke-width:2;stroke-linecap:butt;stroke-linejoin:miter;stroke-opacity:1"
         d="m 145.42591,401.32261 c 20.69489,9.96581 -7.95858,18.63424 5.5171,33.18083"
         id="path3804"
         inkscape:connector-curvature="0" />
      <path
         inkscape:connector-curvature="0"
         id="path3086"
         d="m 154.67567,401.32261 c 20.69489,9.96581 -7.95858,18.63424 5.5171,33.18083"
         style="fill:none;stroke:#000000;stroke-width:2;stroke-linecap:butt;stroke-linejoin:miter;stroke-opacity:1"
         inkscape:export-filename="C:\Documents and Settings\Kristian\Pulpit\coffee.png"
         inkscape:export-xdpi="300"
         inkscape:export-ydpi="300" />
    </g>
    <path
       inkscape:connector-curvature="0"
       id="path3086-5"
       d="m 617.59083,457.75442 c 15.85949,7.63729 -6.09905,14.28032 4.22802,25.42808"
       style="fill:none;stroke:#000000;stroke-width:1.5326966;stroke-linecap:butt;stroke-linejoin:miter;stroke-opacity:1"
       inkscape:export-filename="/home/krother/Desktop/mySpeakerBusiness/pictures/burning_ships.png"
       inkscape:export-xdpi="299.99429"
       inkscape:export-ydpi="299.99429" />
    <path
       inkscape:export-ydpi="299.99429"
       inkscape:export-xdpi="299.99429"
       inkscape:export-filename="/home/krother/Desktop/mySpeakerBusiness/pictures/burning_ships.png"
       style="fill:none;stroke:#000000;stroke-width:1.5326966;stroke-linecap:butt;stroke-linejoin:miter;stroke-opacity:1"
       d="m 626.84059,457.75442 c 15.85949,7.63729 -6.09905,14.28032 4.22802,25.42808"
       id="path3954"
       inkscape:connector-curvature="0" />
    <path
       inkscape:connector-curvature="0"
       id="path3956"
       d="m 636.93123,457.75442 c 15.85949,7.63729 -6.09905,14.28032 4.22802,25.42808"
       style="fill:none;stroke:#000000;stroke-width:1.5326966;stroke-linecap:butt;stroke-linejoin:miter;stroke-opacity:1"
       inkscape:export-filename="/home/krother/Desktop/mySpeakerBusiness/pictures/burning_ships.png"
       inkscape:export-xdpi="299.99429"
       inkscape:export-ydpi="299.99429" />
  </g>
</svg>
